<svg xmlns="http://www.w3.org/2000/svg" xmlns:xlink="http://www.w3.org/1999/xlink" version="1.1" x="0px" y="0px" viewBox="0 0 100 125" enable-background="new 0 0 100 100" xml:space="preserve"><g><path d="M72.455,33.824c-6.08-4.155-13.906-6.665-22.458-6.665c-8.548,0-16.376,2.51-22.455,6.665L13.9,15.588l1.07,40.197   c0,15.809,15.682,28.627,35.027,28.627c19.348,0,35.03-12.818,35.03-28.627L86.1,15.588L72.455,33.824z M31.819,68.994   c2.332-0.21,4.203-6.022,4.203-13.191c0-7.31-1.939-13.233-4.331-13.233c-2.396,0-4.336,5.924-4.336,13.233   c0,7.169,1.871,12.981,4.211,13.191C22.393,68.872,14.97,55.785,14.97,55.785s7.488-13.216,16.721-13.216   c9.234,0,16.718,13.216,16.718,13.216S40.988,68.872,31.819,68.994z M68.438,68.994c2.336-0.21,4.205-6.022,4.205-13.191   c0-7.31-1.939-13.233-4.332-13.233c-2.396,0-4.336,5.924-4.336,13.233c0,7.169,1.871,12.981,4.211,13.191   c-9.174-0.122-16.594-13.209-16.594-13.209s7.486-13.216,16.719-13.216c9.234,0,16.717,13.216,16.717,13.216   S77.607,68.872,68.438,68.994z"/></g><text x="0" y="115" fill="#000000" font-size="5px" font-weight="bold" font-family="'Helvetica Neue', Helvetica, Arial-Unicode, Arial, Sans-serif">Created by Pine Avenue</text><text x="0" y="120" fill="#000000" font-size="5px" font-weight="bold" font-family="'Helvetica Neue', Helvetica, Arial-Unicode, Arial, Sans-serif">from the Noun Project</text></svg>