<?xml version="1.0" encoding="utf-8"?>
<!-- Generator: Adobe Illustrator 26.1.0, SVG Export Plug-In . SVG Version: 6.00 Build 0)  -->
<svg version="1.1" id="Layer_1" xmlns="http://www.w3.org/2000/svg" xmlns:xlink="http://www.w3.org/1999/xlink" x="0px" y="0px"
	 viewBox="0 0 93.6 93.6" style="enable-background:new 0 0 93.6 93.6;" xml:space="preserve">
<style type="text/css">
	.st0{fill:#FFFFFF;}
</style>
<g>
	<path class="st0" d="M69.3,30.6C63.2,26.5,55.3,24,46.8,24c-8.5,0-16.4,2.5-22.5,6.7L10.7,12.4l1.1,40.2c0,15.8,15.7,28.6,35,28.6
		c19.3,0,35-12.8,35-28.6l1.1-40.2L69.3,30.6z M28.6,65.8c2.3-0.2,4.2-6,4.2-13.2c0-7.3-1.9-13.2-4.3-13.2c-2.4,0-4.3,5.9-4.3,13.2
		c0,7.2,1.9,13,4.2,13.2c-9.2-0.1-16.6-13.2-16.6-13.2s7.5-13.2,16.7-13.2c9.2,0,16.7,13.2,16.7,13.2S37.8,65.7,28.6,65.8z
		 M65.2,65.8c2.3-0.2,4.2-6,4.2-13.2c0-7.3-1.9-13.2-4.3-13.2c-2.4,0-4.3,5.9-4.3,13.2c0,7.2,1.9,13,4.2,13.2
		c-9.2-0.1-16.6-13.2-16.6-13.2s7.5-13.2,16.7-13.2c9.2,0,16.7,13.2,16.7,13.2S74.4,65.7,65.2,65.8z"/>
</g>
</svg>
